<?xml version="1.0" standalone="yes"?>
<svg
  xmlns="http://www.w3.org/2000/svg"
  viewBox="0 0 512 512"
>
  <path style="fill: #537CB8; stroke: none;" d="M0 0L0 512L250 512L250 511C228.633 501.024 208.401 487.264 188 475.424C156.72 457.27 125.073 439.706 94 421.201C80.7857 413.331 67.3575 405.775 54 398.15C47.6308 394.515 39.1582 391.145 34.8542 384.96C29.3722 377.082 32 363.152 32 354L32 279L32 173C32 160.715 28.0697 140.103 33.6883 129.004C37.0633 122.337 44.8312 119.115 51 115.579C64.3429 107.929 77.6979 100.296 91 92.5756C123.29 73.8351 155.709 55.3163 188 36.5756C208.401 24.7356 228.633 10.976 250 1L227 0L176 0L0 0z" />
  <path style="fill: #ffffff; stroke: none;" d="M250 0.648926C232.573 5.87646 214.797 20.5221 199 29.5787C161.264 51.2128 123.775 73.2852 86 94.8495C73.307 102.095 60.7039 109.492 48 116.719C42.158 120.042 35.1771 123.166 32.8542 130.001C30.8121 136.009 32 143.73 32 150L32 190L32 323L32 366C32 372.519 30.8104 380.297 34.8542 385.907C42.2561 396.175 61.1329 402.912 72 409.15C101.028 425.812 129.919 442.712 159 459.281C182.745 472.81 206.254 486.751 230 500.281C239.628 505.767 250.132 514.911 262 511.351C279.824 506.005 297.836 491.076 314 481.85C351.759 460.297 389.597 438.768 427 416.603C439.238 409.351 451.635 402.315 464 395.281C469.842 391.958 476.823 388.834 479.146 381.999C481.188 375.991 480 368.27 480 362L480 322L480 189L480 146C480 139.481 481.19 131.703 477.146 126.093C469.906 116.05 451.622 109.511 441 103.421C412.634 87.159 384.129 71.0655 356 54.3966C331.822 40.0689 307.147 26.5812 283 12.2006C273.382 6.47263 261.913 -2.92444 250 0.648926z" />
  <path style="fill: #537CB8; stroke: none;" d="M262 0L262 1C279.255 9.05603 295.478 20.1067 312 29.5787C348.051 50.247 383.96 71.1627 420 91.8503C433.694 99.7108 447.302 107.725 461 115.579C467.169 119.115 474.937 122.337 478.312 129.004C483.93 140.103 480 160.715 480 173L480 279L480 354C480 363.152 482.628 377.082 477.146 384.96C472.479 391.666 462.913 395.342 456 399.281C442.283 407.096 428.688 415.133 415 423C380.634 442.751 346.387 462.707 312 482.421C295.478 491.893 279.255 502.944 262 511L262 512L512 512L512 0L262 0M255 34.0394C240.739 36.6071 223.606 51.5478 211 58.7191C176.898 78.1188 142.753 97.6016 109 117.603C98.0696 124.081 87.0391 130.429 76 136.719C72.2853 138.836 65.4511 141.196 63.6034 145.329C59.4476 154.625 63 172.811 63 183L63 275L63 342C63 348.472 60.4383 361.937 64.0278 367.471C68.4593 374.303 82.9778 379.395 90 383.421L155 420.85C179.365 434.836 203.776 448.784 228 463.011C234.745 466.973 249.018 479.084 257 478.026C261.401 477.443 266.2 473.32 270 471.15L300 453.85C334.745 434.015 369.627 414.27 404 393.799C414.58 387.498 425.3 381.377 436 375.281C439.715 373.164 446.549 370.804 448.397 366.671C452.552 357.375 449 339.189 449 329L449 237L449 170C449 163.528 451.562 150.063 447.972 144.529C443.699 137.942 429.774 133.017 423 129.15C402.955 117.708 382.963 106.161 363 94.5756C336.686 79.3037 310.386 63.9962 284 48.8503C277.429 45.0784 262.609 32.6694 255 34.0394z" />
  <path style="fill: #ffffff; stroke: none;" d="M128 248L129 248C131.826 263.904 141.747 280.035 147.799 295C150.429 301.502 152.681 310.898 158.108 315.606C167.874 324.078 196.611 323.187 199.657 308C201.415 299.23 200 288.932 200 280L200 225C200 216.199 202.54 203.243 195.521 196.533C187.352 188.724 173.457 192.355 169.993 203C164.453 220.024 169 245.119 169 263C161.949 249.761 156.828 234.914 151.201 221C147.825 212.653 144.864 199.945 136.985 194.728C125.206 186.928 98.453 190.506 97.0934 207C95.0076 232.302 97 258.605 97 284C97 292.959 94.4416 306.494 100.419 313.956C107.87 323.258 123.62 320.401 127.196 309C132.634 291.664 128 266.174 128 248M256 279C267.032 279 286.066 282.655 295.985 277.543C305.913 272.426 305.913 255.574 295.985 250.457C286.066 245.345 267.032 249 256 249L256 223L285 223C292.992 223 304.694 225.132 311.96 221.312C321.635 216.225 321.965 200.768 312.957 194.843C306.954 190.896 298.805 192 292 192L249 192C242.125 192 234.477 191.645 229.394 197.214C224.642 202.42 226 210.516 226 217L226 266L226 300C226 305.663 225.65 311.43 230.214 315.606C237.313 322.101 251.193 320.25 254.991 310.996C258.577 302.259 256 288.367 256 279M361 223C361 248.667 360.959 274.333 361 300C361.016 310.092 365.22 319.911 377 319.54C389.543 319.145 391.999 308.267 392 298L392 223C399.443 223 410.405 225.032 416.985 220.991C426.174 215.347 426.285 200.152 416.907 194.558C410.586 190.788 402.031 192 395 192L357 192C350.89 192 343.727 191.06 338.001 193.653C327.275 198.51 325.844 214.743 336.015 220.991C342.595 225.032 353.557 223 361 223z" />
</svg>
